<?xml version="1.0" encoding="UTF-8"?>
<svg id="Layer_1" data-name="Layer 1" xmlns="http://www.w3.org/2000/svg" viewBox="0 0 600.12 230" width="720" height="276">
  <defs>
    <style>
      .cls-1 {
        fill: #231f20;
      }

      .cls-2 {
        fill: #0d37fd;
      }
    </style>
  </defs>
  <g>
    <path class="cls-1" d="M40.12,153.52c0-25.79,15.66-42.82,39.76-42.82s38.83,16.27,38.83,43.9v4.45h-58.17c.61,14.43,8.14,21.64,19.95,21.64,8.75,0,14.58-4.14,17.04-11.36l20.11,1.23c-4.45,15.96-18.42,25.79-37.3,25.79-24.56,0-40.22-16.88-40.22-42.83ZM98.44,145.85c-.92-13.35-8.14-19.65-18.57-19.65s-17.81,6.91-19.34,19.65h37.91Z"/>
    <path class="cls-1" d="M133.13,114.38h18.42l.46,15.96c3.22-11.05,9.52-15.96,19.65-15.96h7.52v16.88h-7.67c-12.59,0-18.73,5.22-18.73,17.81v47.28h-19.65v-81.97Z"/>
    <path class="cls-1" d="M229.49,85.98h20.41v17.5h-20.41v-17.5ZM229.79,114.38h19.65v81.97h-19.65v-81.97Z"/>
    <path class="cls-1" d="M268.74,114.38h17.81l.46,13.97c4.45-11.21,13.66-15.81,24.56-15.81,18.11,0,27.94,12.74,27.94,31.16v52.65h-19.65v-46.36c0-13.81-3.68-21.49-14.28-21.49s-17.19,7.67-17.19,21.49v46.36h-19.65v-81.97Z"/>
    <polygon class="cls-1" points="191 87.36 191 174.79 191 177.01 191 196.35 210.65 196.35 210.65 175.01 210.65 174.79 210.65 162.38 210.65 87.36 191 87.36"/>
    <path class="cls-1" d="M468.88,85.98h20.42v17.5h-20.42v-17.5ZM469.18,114.38h19.65v81.97h-19.65v-81.97Z"/>
    <path class="cls-1" d="M414.7,110.69c-20.26,0-33.46,9.82-36.69,27.01l19.95.92c1.84-8.29,7.21-12.74,16.73-12.74,10.44,0,15.81,5.99,15.81,17.5l-27.17,5.37c-17.96,3.53-26.71,11.05-26.71,25.17s11.36,22.41,28.55,22.41c13.27,0,23.66-5.61,27.85-14.27v14.27h17.12v-51.57c0-21.8-12.13-34.08-35.46-34.08ZM430.51,161.35c0,12.43-8.29,20.72-21.34,20.72-7.83,0-12.13-3.53-12.13-9.98,0-5.68,3.53-9.36,12.28-11.05l21.18-4.3v4.61Z"/>
  </g>
  <path class="cls-2" d="M560,62.87c-16.13,0-29.21-13.08-29.21-29.21,0,16.13-13.08,29.21-29.21,29.21,16.13,0,29.21,13.08,29.21,29.21,0-16.13,13.08-29.21,29.21-29.21Z"/>
</svg>